<?xml version="1.0" encoding="UTF-8" standalone="no"?>
<svg
   xmlns:dc="http://purl.org/dc/elements/1.1/"
   xmlns:cc="http://creativecommons.org/ns#"
   xmlns:rdf="http://www.w3.org/1999/02/22-rdf-syntax-ns#"
   xmlns:svg="http://www.w3.org/2000/svg"
   xmlns="http://www.w3.org/2000/svg"
   xmlns:sodipodi="http://sodipodi.sourceforge.net/DTD/sodipodi-0.dtd"
   xmlns:inkscape="http://www.inkscape.org/namespaces/inkscape"
   height="100"
   width="77.778122"
   version="1.1"
   id="svg3623"
   inkscape:version="0.91 r13725"
   sodipodi:docname="documents.svg">
  <title
     id="title3668">Changelog</title>
  <defs
     id="defs3643" />
  <sodipodi:namedview
     pagecolor="#ffffff"
     bordercolor="#666666"
     borderopacity="1"
     objecttolerance="10"
     gridtolerance="10"
     guidetolerance="10"
     inkscape:pageopacity="0"
     inkscape:pageshadow="2"
     inkscape:window-width="1149"
     inkscape:window-height="566"
     id="namedview3641"
     showgrid="false"
     fit-margin-top="0"
     fit-margin-left="0"
     fit-margin-right="0"
     fit-margin-bottom="0"
     inkscape:zoom="7.375"
     inkscape:cx="12.4445"
     inkscape:cy="16"
     inkscape:window-x="0"
     inkscape:window-y="0"
     inkscape:window-maximized="0"
     inkscape:current-layer="svg3623" />
  <metadata
     id="metadata3625">
    <rdf:RDF>
      <cc:Work
         rdf:about="">
        <dc:format>image/svg+xml</dc:format>
        <dc:type
           rdf:resource="http://purl.org/dc/dcmitype/StillImage" />
        <dc:title>Changelog</dc:title>
        <dc:creator>
          <cc:Agent>
            <dc:title />
          </cc:Agent>
        </dc:creator>
        <cc:license
           rdf:resource="http://opensource.org/licenses/MIT" />
        <dc:contributor>
          <cc:Agent>
            <dc:title />
          </cc:Agent>
        </dc:contributor>
        <dc:publisher>
          <cc:Agent>
            <dc:title>Oleg Solomka(LegoMushroom)</dc:title>
          </cc:Agent>
        </dc:publisher>
        <dc:source>http://iconmelon.com</dc:source>
      </cc:Work>
    </rdf:RDF>
  </metadata>
  <g
     transform="matrix(3.125,0,0,3.125,-11.1125,0)"
     data-iconmelon="80 icons pack:6631e23bb53bf06e8130cfe68a31162d"
     id="g3627">
    <path
       d="m 7.649,10.843 14.066,0 c 0.58,0 1.051,-0.471 1.051,-1.052 0,-0.58 -0.471,-1.051 -1.051,-1.051 l -14.066,0 c -0.58,0 -1.051,0.471 -1.051,1.051 0.001,0.581 0.471,1.052 1.051,1.052 z"
       id="path3629"
       inkscape:connector-curvature="0" />
    <path
       d="m 7.649,14.959 14.066,0 c 0.58,0 1.051,-0.471 1.051,-1.052 0,-0.58 -0.471,-1.051 -1.051,-1.051 l -14.066,0 c -0.58,0 -1.051,0.471 -1.051,1.051 0.001,0.581 0.471,1.052 1.051,1.052 z"
       id="path3631"
       inkscape:connector-curvature="0" />
    <path
       d="m 7.649,19.075 14.066,0 c 0.58,0 1.051,-0.471 1.051,-1.052 0,-0.58 -0.471,-1.051 -1.051,-1.051 l -14.066,0 c -0.58,0 -1.051,0.471 -1.051,1.051 0.001,0.581 0.471,1.052 1.051,1.052 z"
       id="path3633"
       inkscape:connector-curvature="0" />
    <path
       d="m 7.649,23.191 14.066,0 c 0.58,0 1.051,-0.471 1.051,-1.052 0,-0.58 -0.471,-1.051 -1.051,-1.051 l -14.066,0 c -0.58,0 -1.051,0.471 -1.051,1.051 0.001,0.582 0.471,1.052 1.051,1.052 z"
       id="path3635"
       inkscape:connector-curvature="0" />
    <path
       d="m 7.649,27.308 7.232,0 c 0.58,0 1.051,-0.471 1.051,-1.052 0,-0.58 -0.471,-1.051 -1.051,-1.051 l -7.232,0 c -0.58,0 -1.051,0.471 -1.051,1.051 0.001,0.581 0.471,1.052 1.051,1.052 z"
       id="path3637"
       inkscape:connector-curvature="0" />
    <path
       d="M 26.867,0 7.767,0 C 6.897,0 6.19,0.708 6.19,1.577 l 0,2.607 -1.057,0 c -0.87,0 -1.577,0.707 -1.577,1.577 l 0,24.661 c 0,0.87 0.707,1.578 1.577,1.578 l 19.101,0 c 0.869,0 1.576,-0.708 1.576,-1.577 l 0,-2.607 1.058,0 c 0.87,0 1.577,-0.707 1.577,-1.577 l 0,-24.662 C 28.444,0.708 27.737,0 26.867,0 Z m -3.16,29.897 -18.049,0 0,-23.61 18.049,0 0,23.61 z m 2.635,-4.184 -0.532,0 0,-19.951 c 0,-0.87 -0.707,-1.577 -1.576,-1.577 l -15.941,0 0,-2.082 18.049,0 0,23.61 z"
       id="path3639"
       inkscape:connector-curvature="0" />
  </g>
</svg>
