<?xml version="1.0" encoding="UTF-8" standalone="no"?>
<svg
   xmlns:dc="http://purl.org/dc/elements/1.1/"
   xmlns:cc="http://creativecommons.org/ns#"
   xmlns:rdf="http://www.w3.org/1999/02/22-rdf-syntax-ns#"
   xmlns:svg="http://www.w3.org/2000/svg"
   xmlns="http://www.w3.org/2000/svg"
   xmlns:sodipodi="http://sodipodi.sourceforge.net/DTD/sodipodi-0.dtd"
   xmlns:inkscape="http://www.inkscape.org/namespaces/inkscape"
   height="100"
   width="83.463966"
   version="1.1"
   id="svg3490"
   inkscape:version="0.91 r13725"
   sodipodi:docname="user.svg">
  <title
     id="title3666">About Me</title>
  <defs
     id="defs3503" />
  <sodipodi:namedview
     pagecolor="#ffffff"
     bordercolor="#666666"
     borderopacity="1"
     objecttolerance="10"
     gridtolerance="10"
     guidetolerance="10"
     inkscape:pageopacity="0"
     inkscape:pageshadow="2"
     inkscape:window-width="1130"
     inkscape:window-height="634"
     id="namedview3501"
     showgrid="false"
     fit-margin-top="0"
     fit-margin-left="0"
     fit-margin-right="0"
     fit-margin-bottom="0"
     inkscape:zoom="7.375"
     inkscape:cx="9.7983452"
     inkscape:cy="16"
     inkscape:window-x="0"
     inkscape:window-y="0"
     inkscape:window-maximized="0"
     inkscape:current-layer="svg3490" />
  <metadata
     id="metadata3492">
    <rdf:RDF>
      <cc:Work
         rdf:about="">
        <dc:format>image/svg+xml</dc:format>
        <dc:type
           rdf:resource="http://purl.org/dc/dcmitype/StillImage" />
        <dc:title>About Me</dc:title>
        <dc:creator>
          <cc:Agent>
            <dc:title />
          </cc:Agent>
        </dc:creator>
        <cc:license
           rdf:resource="http://opensource.org/licenses/MIT" />
        <dc:contributor>
          <cc:Agent>
            <dc:title />
          </cc:Agent>
        </dc:contributor>
        <dc:publisher>
          <cc:Agent>
            <dc:title>Oleg Solomka(LegoMushroom)</dc:title>
          </cc:Agent>
        </dc:publisher>
        <dc:source>http://iconmelon.com</dc:source>
      </cc:Work>
    </rdf:RDF>
  </metadata>
  <g
     id="user"
     data-iconmelon="80 icons pack:cdfc0a94ed2dd5a94f21679c483e5602"
     transform="matrix(3.125,0,0,3.125,-8.2692336,0)">
    <g
       id="g3495">
      <g
         id="g3497">
        <path
           d="M 22.463,14.812 C 23.924,13.237 24.824,11.136 24.824,8.824 24.824,3.958 20.866,0 16,0 11.134,0 7.176,3.958 7.176,8.824 c 0,2.312 0.9,4.413 2.361,5.988 C 5.826,18.017 3.16,23.905 2.649,30.937 2.628,31.211 2.724,31.482 2.912,31.683 3.099,31.885 3.361,32 3.637,32 l 24.727,0 c 0.275,0 0.538,-0.115 0.726,-0.316 0.187,-0.201 0.282,-0.472 0.262,-0.746 C 28.84,23.905 26.174,18.018 22.463,14.812 M 16,1.979 c 3.774,0 6.846,3.071 6.846,6.846 0,3.775 -3.072,6.845 -6.846,6.845 -3.774,0 -6.846,-3.071 -6.846,-6.846 0,-3.775 3.072,-6.845 6.846,-6.845 M 4.719,30.021 c 0.66,-6.2 3.074,-11.292 6.306,-13.914 1.418,0.972 3.13,1.543 4.976,1.543 1.845,0 3.557,-0.571 4.975,-1.543 3.232,2.622 5.646,7.714 6.307,13.914 l -22.564,0 z"
           id="path3499"
           inkscape:connector-curvature="0" />
      </g>
    </g>
  </g>
</svg>
