<?xml version="1.0" encoding="UTF-8" standalone="no"?>
<svg xmlns:rdf="http://www.w3.org/1999/02/22-rdf-syntax-ns#" xmlns="http://www.w3.org/2000/svg" xml:space="preserve" height="250" width="400" version="1.1" xmlns:cc="http://creativecommons.org/ns#" xmlns:dc="http://purl.org/dc/elements/1.1/" viewBox="0 0 400 249.99999"><title>Amazon AWS</title><metadata><rdf:RDF><cc:Work rdf:about=""><dc:format>image/svg+xml</dc:format><dc:type rdf:resource="http://purl.org/dc/dcmitype/StillImage"/><dc:title>Amazon AWS</dc:title></cc:Work></rdf:RDF></metadata><path style="fill:#201c1d;fill-rule:evenodd" d="m129.23 104.89c-7.8292 0-16.569 3.0168-18.401 12.945-0.19514 1.0544 0.50238 1.5576 1.1768 1.7117l8.0235 0.96282c0.74288-0.0377 1.247-0.84472 1.3908-1.6047 0.68468-3.4165 3.497-5.0281 6.6328-5.0281 1.6946 0 3.5971 0.58198 4.6002 2.1396 1.1502 1.7356 1.0698 4.0952 1.0698 6.0979v1.1768c-4.7688 0.54774-11.048 0.87896-15.512 2.8885-5.1522 2.2902-8.7724 6.9503-8.7724 13.8 0 8.7775 5.3773 13.159 12.303 13.159 5.8471 0 9.0779-1.3736 13.587-6.0979 1.496 2.2252 1.9753 3.2351 4.7071 5.563 0.60936 0.32864 1.3813 0.29612 1.9256-0.21396v0.10698c1.6432-1.496 4.631-4.2253 6.3118-5.67 0.67098-0.56144 0.52377-1.4832 0-2.2466-1.5029-2.1293-3.1024-3.8487-3.1024-7.8096v-13.159c0-5.5733 0.47157-10.712-3.5304-14.549-3.1529-3.105-8.4112-4.1722-12.41-4.1722zm107.84 0c-7.8327 0-16.566 3.0168-18.401 12.945-0.19513 1.0544 0.49896 1.5576 1.1768 1.7117l8.0235 0.96282c0.74287-0.0377 1.2504-0.84472 1.3908-1.6047 0.68809-3.4165 3.497-5.0281 6.6328-5.0281 1.698 0 3.5971 0.58198 4.6002 2.1396 1.1468 1.7356 0.96283 4.0952 0.96283 6.0979v1.1768c-4.7688 0.54774-10.941 0.87896-15.405 2.8885-5.1556 2.2902-8.7724 6.9503-8.7724 13.8 0 8.7775 5.3807 13.159 12.303 13.159 5.8403 0 9.0711-1.3736 13.587-6.0979 1.4892 2.2252 1.9753 3.2351 4.7071 5.563 0.61278 0.32864 1.3813 0.29612 1.9256-0.21396v0.10698c1.6466-1.496 4.631-4.2253 6.3118-5.67 0.671-0.56144 0.51693-1.4832 0-2.2466-1.5029-2.1293-3.1024-3.8487-3.1024-7.8096v-13.159c0-5.5733 0.36117-10.712-3.6373-14.549-3.1564-3.105-8.3042-4.1722-12.303-4.1722zm-60.658 0.42793c-5.0598 0-8.8126 2.553-10.805 8.0235h-0.10698v-5.67c-0.0513-0.7908-0.69665-1.4566-1.4977-1.4977h-7.7026c-0.87296 0-1.6047 0.73859-1.6047 1.6047v43.327c0.065 0.77026 0.71377 1.443 1.4977 1.4977h8.2375c0.87981 0 1.6013-0.73175 1.6047-1.6047v-23.001c0-5.0152-0.24221-11.875 5.67-11.875 5.8369 0 5.0281 7.0479 5.0281 11.875v23.001c0 0.81819 0.66927 1.5499 1.4977 1.6047h8.2375c0.87638 0 1.6047-0.73175 1.6047-1.6047v-23.001c0-2.4614-0.10013-6.0465 0.74887-8.2375 0.84557-2.191 2.9218-3.6373 4.9211-3.6373 2.3827 0 4.2013 0.83103 4.8141 3.7443 0.38342 1.7322 0.21396 6.3093 0.21396 8.1305v23.001c0 0.81819 0.66927 1.5499 1.4977 1.6047h8.2375c0.87639 0 1.6047-0.73175 1.6047-1.6047v-27.387c0-4.6524 0.469-9.9338-2.1396-13.587-2.3039-3.2796-6.0705-4.7071-9.5213-4.7071-4.8406 0-9.3441 2.553-11.34 8.0235-2.3039-5.4671-5.5527-8.0235-10.698-8.0235zm140.04 0c-11.903 0-18.508 10.465-18.508 23.964 0 13.406 6.5326 24.178 18.508 24.178 11.52 0 18.829-10.525 18.829-23.75 0-13.673-6.6208-24.392-18.829-24.392zm46.964 0c-5.6862 0-8.9359 2.8431-11.233 8.7724h-0.10681v-6.6328c-0.1472-0.67098-0.77885-1.1357-1.4977-1.1768h-7.5956c-0.82848 0-1.5294 0.59995-1.6047 1.3908v43.327c0 0.81819 0.67269 1.5499 1.4977 1.6047h8.1305c0.87638 0 1.591-0.72832 1.6047-1.6047v-23.322c0-2.9236 0.24716-5.5912 1.3907-8.2375 0.92089-2.0985 2.7079-3.4234 4.7071-3.4234 5.676 0 5.1351 6.9161 5.1351 11.661v23.536c0.0822 0.73603 0.74458 1.3428 1.4977 1.3908h8.2375c0.81131 0 1.5088-0.61706 1.6047-1.3908v-27.28c0-4.1936 0.0103-10.019-2.1396-13.48-2.3039-3.7418-5.9515-5.1351-9.6282-5.1351zm-98.85 0.74886c-0.8353 0-1.4943 0.66328-1.4977 1.6047v6.2049c0.003 0.92774 0.64189 1.5979 1.4977 1.6047h14.121l-16.154 23.857c-0.98593 1.5371-1.0698 3.2796-1.0698 4.2792v6.3118c0 0.90719 0.98764 1.8974 1.9256 1.3907 9.2054-5.0255 20.238-4.5779 28.564-0.10698 1.0099 0.55117 2.0326-0.48355 2.0326-1.3907v-6.6328c-0.0822-0.88665-0.42963-1.7408-1.4977-2.3536-4.7242-2.7182-10.208-3.55-15.405-3.4234l14.014-20.54c1.2975-1.8452 2.0224-2.9578 2.0326-3.8513v-5.349c0-0.92089-0.62819-1.6047-1.4977-1.6047h-27.066zm51.886 8.1305c2.6086 0 4.5317 1.1631 5.456 4.1722 1.0715 3.4679 1.1768 7.7976 1.1768 11.447 0 5.5596-0.25847 14.763-6.6328 14.763-6.4462 0-6.4188-11.393-6.4188-16.689 0-5.2823 0.35603-13.694 6.4188-13.694zm-182.83 15.833v1.8187c0 3.2899 0.11811 6.0594-1.4977 8.9864-1.3077 2.3792-3.3626 3.8513-5.67 3.8513-3.1495 0-5.0281-2.5556-5.0281-6.2049 0-7.1925 6.2494-8.4515 12.196-8.4515zm107.84 0v1.8187c0 3.2899 0.11811 6.0594-1.4977 8.9864-1.3077 2.3792-3.3523 3.8513-5.67 3.8513-3.1529 0-5.0281-2.5556-5.0281-6.2049 0-7.1925 6.2425-8.4515 12.196-8.4515z"/><path d="m294.84 154v6.2049h4.1722v-6.2049h-4.1722zm-120.99 1.0698v44.183h3.8513v-3.9583c0.82161 1.5679 1.7553 2.7396 2.8885 3.5304 1.1297 0.7908 2.4272 1.1768 3.8513 1.1768 2.8277 0 5.2694-1.4455 7.3816-4.3862s3.2094-7.2045 3.2094-12.624c0-3.55-0.45616-6.4941-1.3907-8.9864-0.93458-2.4888-2.1833-4.3374-3.7443-5.563-1.5611-1.2221-3.3352-1.9256-5.242-1.9256-1.3625 0-2.6351 0.35774-3.7443 1.0698-1.1126 0.71206-2.0121 1.8717-2.8885 3.3164v-15.833h-4.1722zm39.583 10.377c-2.903 0-5.207 0.85926-6.8468 2.5675-1.6398 1.7048-2.4606 3.9044-2.4606 6.6328 0 1.585 0.35688 2.9261 0.96282 4.1722 0.60595 1.2461 1.4755 2.2526 2.5675 2.9954 1.0955 0.74287 3.2804 1.7168 6.5258 2.7815 2.2457 0.72233 3.5868 1.336 4.1722 1.8187 0.84899 0.70179 1.2838 1.6218 1.2838 2.8885 0 1.4652-0.50838 2.6856-1.4977 3.6373-0.98936 0.95512-2.3647 1.3907-4.1722 1.3907s-3.2941-0.5058-4.3862-1.6047-1.6792-2.7687-1.9256-5.0281l-4.1722 0.85585c0.94485 6.8639 4.3682 10.274 10.27 10.27 3.1495 0 5.5604-0.89179 7.3816-2.7815s2.7815-4.4316 2.7815-7.4886c0-1.6501-0.29099-3.081-0.85584-4.2792-0.56486-1.1948-1.3402-2.0866-2.3536-2.7815-1.0167-0.69152-3.2822-1.6141-6.7398-2.7815-2.5128-0.8798-3.9831-1.5251-4.4932-1.9256-0.85242-0.67783-1.2838-1.6004-1.2838-2.7815 0-1.2016 0.39711-2.2252 1.2838-2.9954 0.88665-0.76683 2.2543-1.1768 4.0653-1.1768 3.1906 0 4.9724 1.7502 5.349 5.242l4.0653-0.64188c-0.28072-2.2081-0.7617-3.9506-1.4977-5.1351-0.73602-1.1845-1.823-2.1832-3.2094-2.8885-1.3899-0.70179-2.9826-0.96282-4.8141-0.96282zm25.568 0c-3.3412 0-6.1672 1.3796-8.3445 4.2792-2.1807 2.8996-3.2094 7.1052-3.2094 12.624 0 5.3165 1.0493 9.4819 3.2094 12.303 2.1602 2.8174 4.9596 4.1722 8.4515 4.1722 2.7729 0 5.0777-0.83188 6.9537-2.5675 1.8794-1.7356 3.2428-4.2895 3.9583-7.7026l-4.2792-0.74887c-1.229 4.3751-3.497 6.519-6.6328 6.5258-1.9992 0-3.6314-0.84985-5.0281-2.6745-1.3967-1.8281-2.1858-4.5394-2.3536-8.1305h18.401v-1.4977c0-5.3987-1.0766-9.4511-3.2094-12.303-2.1362-2.8517-4.726-4.2792-7.9166-4.2792zm25.354 0c-0.99963 0-1.8734 0.3372-2.6745 1.0698-0.80106 0.7326-1.7126 2.244-2.6745 4.4932v-4.9211h-3.7443v31.987h4.1722v-16.689c0-2.3279 0.21824-4.5651 0.74886-6.6328 0.30126-1.1845 0.86868-2.1208 1.6047-2.7815 0.73602-0.66072 1.5739-0.96283 2.4606-0.96283 0.98251 0 1.9582 0.39283 2.9954 1.1768l1.3908-5.0281c-1.455-1.1639-2.8825-1.7117-4.2792-1.7117zm51.137 0c-3.3036 0-6.0251 1.3925-8.1305 4.1722-2.102 2.7798-3.2094 6.9572-3.2094 12.517 0 5.5185 1.1246 9.6958 3.2094 12.517 2.0883 2.8174 4.6917 4.1722 7.9166 4.1722 2.66 0 4.9502-0.98935 6.8468-2.9954 1.9-2.0061 3.0579-4.9588 3.5304-8.7724l-4.0653-0.64188c-0.30125 2.7284-1.0133 4.69-2.1396 5.9909-1.1263 1.294-2.4802 1.9256-4.0653 1.9256-2.0198 0-3.7375-0.94057-5.0281-2.8885-1.2906-1.9445-1.9256-5.0598-1.9256-9.4143 0-4.2176 0.68382-7.2627 2.0326-9.2003s3.0776-2.9954 5.1351-2.9954c1.3762 0 2.5513 0.53661 3.5304 1.6047 0.98593 1.0681 1.6389 2.7644 2.0326 4.9211l4.0653-0.85585c-0.48954-3.372-1.5705-5.9113-3.3164-7.5956-1.7493-1.6877-3.8718-2.4606-6.4188-2.4606zm23.857 0c-3.3412 0-6.1638 1.3796-8.3445 4.2792s-3.2094 7.1052-3.2094 12.624c0 5.3165 1.0493 9.4819 3.2094 12.303 2.1636 2.8174 4.9596 4.1722 8.4515 4.1722 2.7695 0 5.0743-0.83188 6.9537-2.5675 1.876-1.7356 3.2394-4.2895 3.9583-7.7026l-4.2792-0.74887c-1.229 4.3751-3.3968 6.519-6.5258 6.5258-1.9993 0-3.7383-0.84985-5.1351-2.6745-1.3967-1.8281-2.1824-4.5394-2.3536-8.1305h18.401v-1.4977c0-5.3987-1.0766-9.4511-3.2094-12.303-2.1293-2.8517-4.726-4.2792-7.9165-4.2792zm24.712 0c-2.9065 0-5.207 0.85926-6.8468 2.5675-1.6433 1.7048-2.4606 3.9044-2.4606 6.6328 0 1.585 0.2499 2.9261 0.85584 4.1722 0.60251 1.2461 1.472 2.2526 2.5675 2.9954 1.0921 0.74287 3.2804 1.7168 6.5258 2.7815 2.2423 0.72233 3.6938 1.336 4.2792 1.8187 0.849 0.70179 1.2838 1.6218 1.2838 2.8885 0 1.4652-0.50837 2.6856-1.4977 3.6373-0.98593 0.95512-2.3681 1.3907-4.1722 1.3907-1.811 0-3.2941-0.5058-4.3862-1.6047-1.0886-1.0989-1.7896-2.7687-2.0326-5.0281l-4.1722 0.85585c0.94143 6.8639 4.3614 10.274 10.27 10.27 3.1529 0 5.6674-0.89179 7.4886-2.7815s2.7815-4.4316 2.7815-7.4886c0-1.6501-0.29098-3.0845-0.85584-4.2792-0.56489-1.1948-1.4438-2.0866-2.4606-2.7815-1.0134-0.69152-3.1752-1.6141-6.6328-2.7815-2.5128-0.8798-4.0935-1.5251-4.6002-1.9256-0.85242-0.67783-1.2838-1.6004-1.2838-2.7815 0-1.2016 0.50409-2.2286 1.3908-2.9954 0.88665-0.76683 2.2577-1.1768 4.0653-1.1768 3.1871 0 4.9724 1.7502 5.349 5.242l4.0653-0.64188c-0.28413-2.2081-0.7583-3.9506-1.4977-5.1351-0.73607-1.1845-1.823-2.1832-3.2094-2.8885-1.3865-0.70179-2.986-0.96282-4.8141-0.96282zm-95.427 0.64188 9.3073 31.987h3.9583l9.3073-31.987h-4.2792l-5.456 19.577c-0.66072 2.369-1.2453 4.4102-1.6047 6.0979-0.45531-2.1259-0.89179-4.3588-1.4977-6.5258l-5.349-19.15h-4.3862zm26.21 0v31.987h4.1722v-31.987h-4.1722zm-137.15 0.42792c-3.3104 0-5.9738 1.4866-8.1305 4.3862-2.1601 2.8996-3.3164 7.1052-3.3164 12.624 0 5.3165 1.0698 9.3783 3.2094 12.196 2.1396 2.8174 4.9938 4.2792 8.4515 4.2792 2.7456 0 4.9879-0.93886 6.8468-2.6745 1.8555-1.7356 3.1392-4.2895 3.8513-7.7026l-4.1722-0.64188c-1.2153 4.3751-3.4242 6.519-6.5258 6.5258-1.9821 0-3.645-0.84985-5.0281-2.6745-1.383-1.8281-2.1858-4.5394-2.3536-8.1305h18.187l0.10698-1.4977c0-5.3987-1.0972-9.5581-3.2094-12.41-2.1122-2.8517-4.7602-4.2792-7.9166-4.2792zm-46.964 0.74887 7.4886 31.987h4.3862l4.9211-24.606 0.85583 5.456 3.9583 19.15h4.2792l7.5956-31.987h-3.9583l-4.1722 18.508-1.3907 6.2049-1.2838-6.2049-3.6373-18.508h-4.2792l-3.8513 18.722-1.2838 6.6328-1.4977-6.8468-3.8513-18.508h-4.2792zm266.27 0.32094v1.4977h4.0653v10.698h1.6047v-10.698h4.0653v-1.4977h-9.7352zm11.34 0v12.196h1.4977v-10.377l3.5304 10.377h1.4977l3.5304-10.163v10.163h1.6047v-12.196h-2.2466l-2.8885 8.5584c-0.29098 0.85585-0.4981 1.4738-0.64188 1.9256l-0.64188-1.8187-2.8885-8.6654h-2.3536zm-149.45 2.2466c2.078 0 3.7931 1.0065 5.1351 2.9954 0.92431 1.3659 1.5234 3.4354 1.7117 6.2049h-13.8c0.13009-2.8106 0.92516-4.9759 2.2466-6.6328s2.8414-2.5675 4.7071-2.5675zm100.35 0c2.0712 0 3.7931 1.0065 5.1351 2.9954 0.92089 1.3659 1.5234 3.4354 1.7117 6.2049h-13.8c0.13009-2.8106 0.92174-4.9759 2.2466-6.6328 1.318-1.6569 2.838-2.5675 4.7072-2.5675zm-181.55 1.1768c2.054 0 3.7032 1.0065 5.0281 2.9954 0.91404 1.3659 1.5234 3.4354 1.7117 6.2049h-13.587c0.13009-2.8106 0.82503-5.0828 2.1396-6.7398 1.3077-1.6569 2.8551-2.4606 4.7071-2.4606zm26.531 0c1.8555 0 3.4336 1.0304 4.7071 2.9954 1.2735 1.9684 1.8187 5.0033 1.8187 9.2003 0 4.0944-0.60423 7.1429-1.9256 9.2003s-2.8953 3.1024-4.6002 3.1024c-1.253 0-2.393-0.42108-3.4234-1.2838-1.0339-0.86269-1.7921-2.1011-2.3536-3.7443-0.56143-1.6466-0.85584-4.1782-0.85584-7.4886 0-3.8958 0.69408-6.8219 2.0326-8.8794 1.3385-2.0574 2.8953-3.1024 4.6002-3.1024z"/><path style="fill:#f7a80d;fill-rule:evenodd" d="m50.762 137.1-15.94 6.8468 14.763 6.3118 17.117-6.3118-15.94-6.8468zm-23.964 8.5584-0.5349 30.81 23.322 10.27v-31.987l-22.787-9.0933zm47.927 0-21.075 8.0235v30.168l21.075-8.5584v-29.634z"/><path style="fill:#f7a80d;fill-rule:evenodd" d="m99.866 49.799-16.047 6.8467 14.87 6.3118 17.117-6.3118-15.94-6.8467zm-22.252 9.0933v30.81l19.898 5.777 0.64188-28.029-20.54-8.5584zm44.504 1.7117-18.829 8.0235v30.275l18.829-8.5584v-29.741z"/><path style="fill:#f7a80d;fill-rule:evenodd" d="m24.499 93.163-15.94 6.8467 14.763 6.3118 17.117-6.3118-15.94-6.8467zm-23.964 8.557-0.5349 30.81l23.322 10.27v-31.987l-22.787-9.0933zm47.927 0-21.075 8.0235v30.168l21.075-8.5584v-29.634z"/><path style="fill:#f7a80d;fill-rule:evenodd" d="m75.849 92.025-15.94 6.8468 14.763 6.3118 17.117-6.3118-15.94-6.8468zm-23.964 8.5584-0.5349 30.81 23.322 10.27v-31.987l-22.787-9.0933zm47.927 0-21.075 8.0235v30.168l21.075-8.5584v-29.634z"/><path style="fill:#f7a80d;fill-rule:evenodd" d="m150.02 49.799-15.94 6.8467 14.763 6.3118 17.117-6.3118-15.94-6.8467zm-23.964 8.5584-0.5349 30.81 23.322 10.27v-31.987l-22.787-9.0933zm47.927 0-21.075 8.0235v30.168l21.075-8.5584v-29.634z"/></svg>
