<?xml version="1.0" encoding="UTF-8" standalone="no"?>
<svg xmlns:rdf="http://www.w3.org/1999/02/22-rdf-syntax-ns#" xmlns="http://www.w3.org/2000/svg" xml:space="preserve" height="43.875" width="500" version="1.1" xmlns:cc="http://creativecommons.org/ns#" xmlns:dc="http://purl.org/dc/elements/1.1/" viewBox="0 0 500.00001 43.874999"><title>Amazon AWS</title><metadata><rdf:RDF><cc:Work rdf:about=""><dc:format>image/svg+xml</dc:format><dc:type rdf:resource="http://purl.org/dc/dcmitype/StillImage"/><dc:title>Amazon AWS</dc:title></cc:Work></rdf:RDF></metadata><path style="fill:#201c1d;fill-rule:evenodd" d="m204.55 16.094c-2.287 0-4.84 0.88125-5.375 3.7812-0.057 0.308 0.14675 0.455 0.34375 0.5l2.3438 0.28125c0.217-0.011 0.36425-0.24675 0.40625-0.46875 0.2-0.998 1.0215-1.4688 1.9375-1.4688 0.495 0 1.0508 0.17 1.3438 0.625 0.336 0.507 0.3125 1.1962 0.3125 1.7812v0.34375c-1.393 0.16-3.2272 0.25675-4.5312 0.84375-1.505 0.669-2.5625 2.0302-2.5625 4.0312 0 2.564 1.5708 3.8438 3.5938 3.8438 1.708 0 2.6518-0.40125 3.9688-1.7812 0.437 0.65 0.577 0.945 1.375 1.625 0.178 0.096 0.4035 0.0865 0.5625-0.0625v0.03125c0.48-0.437 1.3528-1.2342 1.8438-1.6562 0.196-0.164 0.153-0.43325 0-0.65625-0.439-0.622-0.90625-1.1242-0.90625-2.2812v-3.8438c0-1.628 0.13775-3.129-1.0312-4.25-0.921-0.907-2.457-1.2188-3.625-1.2188zm31.5 0c-2.288 0-4.839 0.88125-5.375 3.7812-0.057 0.308 0.14575 0.455 0.34375 0.5l2.3438 0.28125c0.217-0.011 0.36525-0.24675 0.40625-0.46875 0.201-0.998 1.0215-1.4688 1.9375-1.4688 0.496 0 1.0508 0.17 1.3438 0.625 0.335 0.507 0.28125 1.1962 0.28125 1.7812v0.34375c-1.393 0.16-3.196 0.25675-4.5 0.84375-1.506 0.669-2.5625 2.0302-2.5625 4.0312 0 2.564 1.5718 3.8438 3.5938 3.8438 1.706 0 2.6498-0.40125 3.9688-1.7812 0.435 0.65 0.577 0.945 1.375 1.625 0.179 0.096 0.4035 0.0865 0.5625-0.0625v0.03125c0.481-0.437 1.3528-1.2342 1.8438-1.6562 0.196-0.164 0.151-0.43325 0-0.65625-0.439-0.622-0.90625-1.1242-0.90625-2.2812v-3.8438c0-1.628 0.1055-3.129-1.0625-4.25-0.922-0.907-2.4258-1.2188-3.5938-1.2188zm-17.719 0.125c-1.478 0-2.5742 0.74575-3.1562 2.3438h-0.0312v-1.6562c-0.015-0.231-0.2035-0.4255-0.4375-0.4375h-2.25c-0.255 0-0.46875 0.21575-0.46875 0.46875v12.656c0.019 0.225 0.2085 0.4215 0.4375 0.4375h2.4062c0.257 0 0.46775-0.21375 0.46875-0.46875v-6.7188c0-1.465-0.0708-3.4688 1.6562-3.4688 1.705 0 1.4688 2.0588 1.4688 3.4688v6.7188c0 0.239 0.1955 0.45275 0.4375 0.46875h2.4062c0.256 0 0.46875-0.21375 0.46875-0.46875v-6.7188c0-0.719-0.0293-1.7662 0.21875-2.4062 0.247-0.64 0.8535-1.0625 1.4375-1.0625 0.696 0 1.2272 0.24275 1.4062 1.0938 0.112 0.506 0.0625 1.843 0.0625 2.375v6.7188c0 0.239 0.1955 0.45275 0.4375 0.46875h2.4062c0.256 0 0.46875-0.21375 0.46875-0.46875v-8c0-1.359 0.137-2.9018-0.625-3.9688-0.673-0.958-1.7732-1.375-2.7812-1.375-1.414 0-2.7295 0.74575-3.3125 2.3438-0.673-1.597-1.622-2.3438-3.125-2.3438zm40.906 0c-3.477 0-5.4062 3.057-5.4062 7 0 3.916 1.9082 7.0625 5.4062 7.0625 3.365 0 5.5-3.0745 5.5-6.9375 0-3.994-1.934-7.125-5.5-7.125zm13.719 0c-1.661 0-2.6102 0.8305-3.2812 2.5625h-0.0312v-1.9375c-0.043-0.196-0.22751-0.33175-0.4375-0.34375h-2.2188c-0.24201 0-0.44675 0.17525-0.46875 0.40625v12.656c0 0.239 0.1965 0.45275 0.4375 0.46875h2.375c0.256 0 0.46474-0.21275 0.46875-0.46875v-6.8125c0-0.854 0.0722-1.6332 0.40625-2.4062 0.269-0.613 0.791-1 1.375-1 1.658 0 1.5 2.0202 1.5 3.4062v6.875c0.024 0.215 0.2175 0.39225 0.4375 0.40625h2.4062c0.23699 0 0.44074-0.18025 0.46875-0.40625v-7.9688c0-1.225 0.003-2.9265-0.625-3.9375-0.673-1.093-1.7385-1.5-2.8125-1.5zm-28.875 0.21875c-0.244 0-0.4365 0.19375-0.4375 0.46875v1.8125c0.001 0.271 0.1875 0.46675 0.4375 0.46875h4.125l-4.7188 6.9688c-0.288 0.449-0.3125 0.958-0.3125 1.25v1.8438c0 0.265 0.2885 0.55425 0.5625 0.40625 2.689-1.468 5.9118-1.3372 8.3438-0.03125 0.295 0.161 0.59375-0.14125 0.59375-0.40625v-1.9375c-0.024-0.259-0.1255-0.5085-0.4375-0.6875-1.38-0.794-2.982-1.037-4.5-1l4.0938-6c0.379-0.539 0.59075-0.864 0.59375-1.125v-1.5625c0-0.269-0.1835-0.46875-0.4375-0.46875h-7.9062zm15.156 2.375c0.762 0 1.3238 0.33975 1.5938 1.2188 0.313 1.013 0.34375 2.2778 0.34375 3.3438 0 1.624-0.0755 4.3125-1.9375 4.3125-1.883 0-1.875-3.328-1.875-4.875 0-1.543 0.104-4 1.875-4zm-53.406 4.625v0.53125c0 0.961 0.0345 1.77-0.4375 2.625-0.382 0.695-0.98225 1.125-1.6562 1.125-0.92 0-1.4688-0.7465-1.4688-1.8125 0-2.101 1.8255-2.4688 3.5625-2.4688zm31.5 0v0.53125c0 0.961 0.0345 1.77-0.4375 2.625-0.382 0.695-0.97925 1.125-1.6562 1.125-0.921 0-1.4688-0.7465-1.4688-1.8125 0-2.101 1.8235-2.4688 3.5625-2.4688z"/><path d="m252.92 30.437v1.8125h1.2188v-1.8125h-1.2188zm-35.344 0.3125v12.906h1.125v-1.1562c0.24 0.458 0.51275 0.80025 0.84375 1.0312 0.33 0.231 0.709 0.34375 1.125 0.34375 0.826 0 1.5392-0.42225 2.1562-1.2812 0.617-0.859 0.9375-2.1045 0.9375-3.6875 0-1.037-0.13325-1.897-0.40625-2.625-0.273-0.727-0.63775-1.267-1.0938-1.625-0.456-0.357-0.97425-0.5625-1.5312-0.5625-0.398 0-0.76975 0.1045-1.0938 0.3125-0.325 0.208-0.58775 0.54675-0.84375 0.96875v-4.625h-1.2188zm11.562 3.0312c-0.848 0-1.521 0.251-2 0.75-0.479 0.498-0.71875 1.1405-0.71875 1.9375 0 0.463 0.10425 0.85475 0.28125 1.2188 0.177 0.364 0.431 0.658 0.75 0.875 0.32 0.217 0.95825 0.5015 1.9062 0.8125 0.656 0.211 1.0478 0.39025 1.2188 0.53125 0.248 0.205 0.375 0.47375 0.375 0.84375 0 0.428-0.1485 0.7845-0.4375 1.0625-0.289 0.279-0.69075 0.40625-1.2188 0.40625-0.528 0-0.96225-0.14775-1.2812-0.46875-0.319-0.321-0.4905-0.80875-0.5625-1.4688l-1.2188 0.25c0.276 2.005 1.276 3.001 3 3 0.92 0 1.6242-0.2605 2.1562-0.8125s0.8125-1.2945 0.8125-2.1875c0-0.482-0.085-0.9-0.25-1.25-0.165-0.349-0.3915-0.6095-0.6875-0.8125-0.297-0.202-0.95875-0.4715-1.9688-0.8125-0.734-0.257-1.1635-0.4455-1.3125-0.5625-0.249-0.198-0.375-0.4675-0.375-0.8125 0-0.351 0.116-0.65 0.375-0.875 0.259-0.224 0.6585-0.34375 1.1875-0.34375 0.932 0 1.4525 0.51125 1.5625 1.5312l1.1875-0.1875c-0.082-0.645-0.2225-1.154-0.4375-1.5s-0.5325-0.63775-0.9375-0.84375c-0.406-0.205-0.87125-0.28125-1.4062-0.28125zm7.4688 0c-0.976 0-1.8015 0.403-2.4375 1.25-0.637 0.847-0.9375 2.0755-0.9375 3.6875 0 1.553 0.3065 2.7698 0.9375 3.5938 0.631 0.823 1.4488 1.2188 2.4688 1.2188 0.81 0 1.4832-0.243 2.0312-0.75 0.549-0.507 0.94725-1.253 1.1562-2.25l-1.25-0.21875c-0.359 1.278-1.0215 1.9042-1.9375 1.9062-0.584 0-1.0608-0.24825-1.4688-0.78125-0.408-0.534-0.6385-1.326-0.6875-2.375h5.375v-0.4375c0-1.577-0.3145-2.7608-0.9375-3.5938-0.624-0.833-1.3805-1.25-2.3125-1.25zm7.4062 0c-0.292 0-0.54725 0.0985-0.78125 0.3125s-0.50025 0.6555-0.78125 1.3125v-1.4375h-1.0938v9.3438h1.2188v-4.875c0-0.68 0.0637-1.3335 0.21875-1.9375 0.088-0.346 0.25375-0.6195 0.46875-0.8125s0.45975-0.28125 0.71875-0.28125c0.287 0 0.572 0.11475 0.875 0.34375l0.40625-1.4688c-0.425-0.34-0.842-0.5-1.25-0.5zm14.938 0c-0.965 0-1.76 0.40675-2.375 1.2188-0.614 0.812-0.9375 2.0322-0.9375 3.6562 0 1.612 0.3285 2.8322 0.9375 3.6562 0.61 0.823 1.3705 1.2188 2.3125 1.2188 0.777 0 1.446-0.289 2-0.875 0.555-0.586 0.89325-1.4485 1.0312-2.5625l-1.1875-0.1875c-0.088 0.797-0.296 1.37-0.625 1.75-0.329 0.378-0.7245 0.5625-1.1875 0.5625-0.59 0-1.0918-0.27475-1.4688-0.84375-0.377-0.568-0.5625-1.478-0.5625-2.75 0-1.232 0.19975-2.1215 0.59375-2.6875s0.899-0.875 1.5-0.875c0.402 0 0.74525 0.15675 1.0312 0.46875 0.288 0.312 0.47875 0.8075 0.59375 1.4375l1.1875-0.25c-0.143-0.985-0.45875-1.7268-0.96875-2.2188-0.511-0.493-1.131-0.71875-1.875-0.71875zm6.9688 0c-0.97601 0-1.8005 0.403-2.4375 1.25s-0.9375 2.0755-0.9375 3.6875c0 1.553 0.3065 2.7698 0.9375 3.5938 0.632 0.823 1.4488 1.2188 2.4688 1.2188 0.80899 0 1.4822-0.243 2.0312-0.75 0.548-0.507 0.94625-1.253 1.1562-2.25l-1.25-0.21875c-0.359 1.278-0.99225 1.9042-1.9062 1.9062-0.58401 0-1.092-0.24825-1.5-0.78125-0.408-0.534-0.6375-1.326-0.6875-2.375h5.375v-0.4375c0-1.577-0.3145-2.7608-0.9375-3.5938-0.622-0.833-1.3805-1.25-2.3125-1.25zm7.2188 0c-0.84902 0-1.521 0.251-2 0.75-0.48001 0.498-0.71875 1.1405-0.71875 1.9375 0 0.463 0.073 0.85475 0.25 1.2188 0.176 0.364 0.43 0.658 0.75 0.875 0.319 0.217 0.95825 0.5015 1.9062 0.8125 0.655 0.211 1.079 0.39025 1.25 0.53125 0.248 0.205 0.375 0.47375 0.375 0.84375 0 0.428-0.1485 0.7845-0.4375 1.0625-0.288 0.279-0.69175 0.40625-1.2188 0.40625-0.529 0-0.96225-0.14775-1.2812-0.46875-0.318-0.321-0.52277-0.80875-0.59375-1.4688l-1.2188 0.25c0.275 2.005 1.274 3.001 3 3 0.921 0 1.6555-0.2605 2.1875-0.8125 0.53198-0.552 0.8125-1.2945 0.8125-2.1875 0-0.482-0.085-0.901-0.25-1.25-0.16501-0.349-0.42177-0.6095-0.71875-0.8125-0.29601-0.202-0.9275-0.4715-1.9375-0.8125-0.734-0.257-1.1958-0.4455-1.3438-0.5625-0.249-0.198-0.375-0.4675-0.375-0.8125 0-0.351 0.14725-0.651 0.40625-0.875s0.65949-0.34375 1.1875-0.34375c0.93098 0 1.4525 0.51125 1.5625 1.5312l1.1875-0.1875c-0.083-0.645-0.22151-1.154-0.4375-1.5-0.21502-0.346-0.5325-0.63775-0.9375-0.84375-0.405-0.205-0.87225-0.28125-1.4062-0.28125zm-27.875 0.1875 2.7188 9.3438h1.1562l2.7188-9.3438h-1.25l-1.5938 5.7188c-0.193 0.692-0.36375 1.2882-0.46875 1.7812-0.133-0.621-0.2605-1.2732-0.4375-1.9062l-1.5625-5.5938h-1.2812zm7.6562 0v9.3438h1.2188v-9.3438h-1.2188zm-40.062 0.125c-0.967 0-1.745 0.43425-2.375 1.2812-0.631 0.847-0.96875 2.0755-0.96875 3.6875 0 1.553 0.3125 2.7395 0.9375 3.5625s1.4588 1.25 2.4688 1.25c0.802 0 1.457-0.27425 2-0.78125 0.542-0.507 0.917-1.253 1.125-2.25l-1.2188-0.1875c-0.355 1.278-1.0002 1.9042-1.9062 1.9062-0.579 0-1.0648-0.24825-1.4688-0.78125-0.404-0.534-0.6385-1.326-0.6875-2.375h5.3125l0.0312-0.4375c0-1.577-0.3205-2.792-0.9375-3.625s-1.3905-1.25-2.3125-1.25zm-13.719 0.21875 2.1875 9.3438h1.2812l1.4375-7.1875 0.25 1.5938 1.1562 5.5938h1.25l2.2188-9.3438h-1.1562l-1.2188 5.4062-0.40625 1.8125-0.375-1.8125-1.0625-5.4062h-1.25l-1.125 5.4688-0.375 1.9375-0.4375-2-1.125-5.4062h-1.25zm77.781 0.09375v0.4375h1.1875v3.125h0.46875v-3.125h1.1875v-0.4375h-2.8438zm3.3125 0v3.5625h0.4375v-3.0312l1.0312 3.0312h0.4375l1.0312-2.9688v2.9688h0.46875v-3.5625h-0.65625l-0.84375 2.5c-0.085 0.25-0.1455 0.4305-0.1875 0.5625l-0.1875-0.53125-0.84375-2.5312h-0.6875zm-43.656 0.65625c0.607 0 1.108 0.294 1.5 0.875 0.27 0.399 0.445 1.0035 0.5 1.8125h-4.0312c0.038-0.821 0.27025-1.4535 0.65625-1.9375s0.83-0.75 1.375-0.75zm29.313 0c0.605 0 1.108 0.294 1.5 0.875 0.269 0.399 0.44499 1.0035 0.5 1.8125h-4.0313c0.038-0.821 0.26925-1.4535 0.65625-1.9375 0.385-0.484 0.829-0.75 1.375-0.75zm-53.031 0.34375c0.6 0 1.0818 0.294 1.4688 0.875 0.267 0.399 0.445 1.0035 0.5 1.8125h-3.9688c0.038-0.821 0.241-1.4848 0.625-1.9688 0.382-0.484 0.834-0.71875 1.375-0.71875zm7.75 0c0.542 0 1.003 0.301 1.375 0.875 0.372 0.575 0.53125 1.4615 0.53125 2.6875 0 1.196-0.1765 2.0865-0.5625 2.6875s-0.84575 0.90625-1.3438 0.90625c-0.366 0-0.699-0.123-1-0.375-0.302-0.252-0.5235-0.61375-0.6875-1.0938-0.164-0.481-0.25-1.2205-0.25-2.1875 0-1.138 0.20275-1.9928 0.59375-2.5938s0.84575-0.90625 1.3438-0.90625z"/><path style="fill:#f7a80d;fill-rule:evenodd" d="m181.63 25.5-4.6562 2 4.3125 1.8438 5-1.8438-4.6562-2zm-7 2.5-0.15625 9 6.8125 3v-9.3438l-6.65-2.656zm14 0-6.1562 2.3438v8.8125l6.1562-2.5v-8.6562z"/><path style="fill:#f7a80d;fill-rule:evenodd" d="m195.97 0-4.6875 2 4.3438 1.8438 5-1.8438-4.6562-2zm-6.5 2.6562v9l5.8125 1.6875 0.1875-8.1875-6-2.5zm13 0.5-5.5 2.3438v8.8438l5.5-2.5v-8.6875z"/><path style="fill:#f7a80d;fill-rule:evenodd" d="m173.96 12.667-4.6562 2 4.3125 1.8438 5-1.8438-4.6562-2zm-7 2.5-0.15625 9 6.8125 3v-9.3438l-6.6562-2.6562zm14 0-6.1562 2.3438v8.8125l6.1562-2.5v-8.6562z"/><path style="fill:#f7a80d;fill-rule:evenodd" d="m188.96 12.334-4.6562 2 4.3125 1.8438 5-1.8438-4.6562-2zm-7 2.5-0.15625 9 6.8125 3v-9.3438l-6.6562-2.6562zm14 0-6.1562 2.3438v8.8125l6.1562-2.5v-8.6562z"/><path style="fill:#f7a80d;fill-rule:evenodd" d="m210.62 0-4.6562 2 4.3125 1.8438 5-1.8438-4.6562-2zm-7 2.5-0.15625 9 6.8125 3v-9.3438l-6.65-2.6562zm14 0-6.1562 2.3438v8.8125l6.1562-2.5v-8.6562z"/></svg>
