<!-- Created with Inkscape (http://www.inkscape.org/) -->
<svg xmlns:rdf="http://www.w3.org/1999/02/22-rdf-syntax-ns#" xmlns="http://www.w3.org/2000/svg" xml:space="preserve" height="1000" width="1000" version="1.1" xmlns:cc="http://creativecommons.org/ns#" xmlns:dc="http://purl.org/dc/elements/1.1/"><metadata><rdf:RDF><cc:Work rdf:about=""><dc:format>image/svg+xml</dc:format><dc:type rdf:resource="http://purl.org/dc/dcmitype/StillImage"/><dc:title/></cc:Work></rdf:RDF></metadata><defs><radialGradient id="radialGradient3026" gradientUnits="userSpaceOnUse" cy="0" cx="0" gradientTransform="matrix(-5.2608819,554.27795,440.50464,4.1810126,397,614.48975)" r="1"><stop style="stop-color:#e68c8c;" offset="0"/><stop style="stop-color:#a482c4;" offset="0.5"/><stop style="stop-color:#01263b;" offset="1"/></radialGradient><clipPath id="clipPath3040"><path d="M0,0,800,0,800,800,0,800,0,0z"/></clipPath><clipPath id="clipPath3048"><path d="m-124.38,556.64,1043.6,0,0-810.05-1043.6,0,0,810.05z"/></clipPath><clipPath id="clipPath3052"><path d="m-124.38,10.08,90.901,27.617,12.658,279.61,80.544,0,29.917-17.262-8.055-289.96,8.055,0,0,112.76,10.355,2.303,8.054,104.71,6.903,4.601,0,180.65,69.038,17.261-6.902-186.4,70.189,6.904,0-103.56,40.272,1.15,16.11,225.53,115.06-3.452,4.601-19.561,46.027-5.752,13.806,40.271,60.985-1.15,0,133.48,87.45,36.82,42.572-41.423,0-318.73,11.505,6.906,0,110.46,82.849,14.96,0-128.88,20.71,1.153-10.354,210.57,35.67,2.301,0,60.983,23.013,17.261,81.696-2.301,0-743.31-1043.6,0,0,263.49z"/></clipPath><radialGradient id="radialGradient3060" gradientUnits="userSpaceOnUse" cy="0" cx="0" gradientTransform="matrix(-2.5e-5,572.16742,465.48224,2.03e-5,397.43311,277.66797)" r="1"><stop style="stop-color:#ffffff;stop-opacity:0;" offset="0"/><stop style="stop-color:#ffffff;" offset="0.48413"/><stop style="stop-color:#ffffff;stop-opacity:0;" offset="1"/></radialGradient><mask id="mask3068"><path style="fill:url(#radialGradient3060);" d="m-32768,32767,65535,0,0-65535-65535,0,0,65535z"/></mask><clipPath id="clipPath3110"><path d="m-144.97,520.62,1069.6,0,0-810.05-1069.6,0,0,810.05z"/></clipPath><clipPath id="clipPath3114"><path d="m-144.97-25.937,93.163,27.618,12.973,279.6,82.552,0,30.66-17.261-8.255-289.96,8.255,0,0,112.76,10.613,2.304,8.256,104.71,7.075,4.601,0,180.65,70.758,17.261-7.075-186.41,71.937,6.906,0-103.56,41.274,1.15,16.511,225.53,117.93-3.451,4.719-19.563,47.171-5.752,14.149,40.273,62.505-1.151,0,133.48,89.627,36.819,43.634-41.422,0-318.73,11.791,6.905,0,110.46,84.911,14.961,0-128.88,21.227,1.153-10.612,210.57,36.557,2.3,0,60.984,23.586,17.262,83.73-2.301,0-743.31-1069.6,0,0,263.5z"/></clipPath><radialGradient id="radialGradient3122" gradientUnits="userSpaceOnUse" cy="0" cx="0" gradientTransform="matrix(-2.56e-5,586.41461,465.48242,2.03e-5,389.8418,241.65039)" r="1"><stop style="stop-color:#ffffff;stop-opacity:0;" offset="0"/><stop style="stop-color:#ffffff;" offset="0.48413"/><stop style="stop-color:#ffffff;stop-opacity:0;" offset="1"/></radialGradient><mask id="mask3130"><path style="fill:url(#radialGradient3122);" d="m-32768,32767,65535,0,0-65535-65535,0,0,65535z"/></mask><clipPath id="clipPath3172"><path d="m-111.64,505.05,1062.5,0,0-810.05-1062.5,0,0,810.05z"/></clipPath><clipPath id="clipPath3176"><path d="m-111.64-41.505,92.545,27.617,12.888,279.61,82.003,0,30.457-17.261-8.199-289.96,8.199,0,0,112.76,10.544,2.304,8.2,104.71,7.028,4.602,0,180.65,70.288,17.26-7.028-186.4,71.46,6.905,0-103.56,41.001,1.15,16.402,225.53,117.15-3.451,4.685-19.562,46.86-5.752,14.056,40.272,62.088-1.15,0,133.47,89.035,36.819,43.342-41.421,0-318.73,11.715,6.906,0,110.46,84.347,14.961,0-128.88,21.085,1.153-10.541,210.57,36.315,2.301,0,60.984,23.429,17.261,83.176-2.301,0-743.31-1062.5,0,0,263.5z"/></clipPath><radialGradient id="radialGradient3184" gradientUnits="userSpaceOnUse" cy="0" cx="0" gradientTransform="matrix(-2.55e-5,582.52448,465.48288,2.03e-5,419.62793,226.08203)" r="1"><stop style="stop-color:#ffffff;stop-opacity:0;" offset="0"/><stop style="stop-color:#ffffff;" offset="0.48413"/><stop style="stop-color:#ffffff;stop-opacity:0;" offset="1"/></radialGradient><mask id="mask3192"><path style="fill:url(#radialGradient3184);" d="m-32768,32767,65535,0,0-65535-65535,0,0,65535z"/></mask><clipPath id="clipPath3598"><path d="m0,0.521,800,0v799.48h-800v-799.48z"/></clipPath><clipPath id="clipPath3606"><path d="m481.66,666.57,455.84,0,0-487-455.84,0,0,487z"/></clipPath><clipPath id="clipPath3610"><path d="M519.72,220.36,898.17,629.22,879.07,646.9,500.61,238.05,519.72,220.36z"/></clipPath><linearGradient id="linearGradient3618" gradientUnits="userSpaceOnUse" gradientTransform="matrix(-69.910759,-370.24408,-359.42737,-69.910759,734.34766,618.75586)"><stop style="stop-color:#ffffff;stop-opacity:0;" offset="0"/><stop style="stop-color:#ffffff;" offset="0.72222"/><stop style="stop-color:#ffffff;stop-opacity:0;" offset="1"/></linearGradient><mask id="mask3626"><path style="fill:url(#linearGradient3618);" d="m-32768,32767,65535,0,0-65535-65535,0,0,65535z"/></mask><clipPath id="clipPath3646"><path d="M500.76,240.03,879.22,648.88,860.11,666.57,481.66,257.71,500.76,240.03z"/></clipPath><linearGradient id="linearGradient3654" gradientUnits="userSpaceOnUse" gradientTransform="matrix(-69.910759,-370.24408,-359.42737,-69.910759,715.39062,638.42187)"><stop style="stop-color:#ffffff;stop-opacity:0;" offset="0"/><stop style="stop-color:#ffffff;" offset="0.72222"/><stop style="stop-color:#ffffff;stop-opacity:0;" offset="1"/></linearGradient><mask id="mask3662"><path style="fill:url(#linearGradient3654);" d="m-32768,32767,65535,0,0-65535-65535,0,0,65535z"/></mask><clipPath id="clipPath3682"><path d="M539.38,199.97,917.84,608.82,898.73,626.51,520.27,217.65,539.38,199.97z"/></clipPath><linearGradient id="linearGradient3690" gradientUnits="userSpaceOnUse" gradientTransform="matrix(-69.91053,-370.24286,-359.42618,-69.91053,754.00879,598.35937)"><stop style="stop-color:#ffffff;stop-opacity:0;" offset="0"/><stop style="stop-color:#ffffff;" offset="0.72222"/><stop style="stop-color:#ffffff;stop-opacity:0;" offset="1"/></linearGradient><mask id="mask3698"><path style="fill:url(#linearGradient3690);" d="m-32768,32767,65535,0,0-65535-65535,0,0,65535z"/></mask><clipPath id="clipPath3718"><path d="M559.04,179.57,937.5,588.43,918.39,606.12,539.93,197.26,559.04,179.57z"/></clipPath><linearGradient id="linearGradient3726" gradientUnits="userSpaceOnUse" gradientTransform="matrix(-69.910759,-370.24408,-359.42737,-69.910759,773.66797,577.96582)"><stop style="stop-color:#ffffff;stop-opacity:0;" offset="0"/><stop style="stop-color:#ffffff;" offset="0.72222"/><stop style="stop-color:#ffffff;stop-opacity:0;" offset="1"/></linearGradient><mask id="mask3734"><path style="fill:url(#linearGradient3726);" d="m-32768,32767,65535,0,0-65535-65535,0,0,65535z"/></mask><clipPath id="clipPath3818"><path d="m479.57,649.24,467.71,0,0-473.63-467.71,0,0,473.63z"/></clipPath><clipPath id="clipPath3822"><path d="m519.04,609.92,387.45-398.31-19.803-17.039-387.45,398.31,19.805,17.038z"/></clipPath><linearGradient id="linearGradient3830" gradientUnits="userSpaceOnUse" gradientTransform="matrix(69.678902,-359.24127,-370.02914,69.678902,668.02148,581.86133)"><stop style="stop-color:#ffffff;stop-opacity:0;" offset="0"/><stop style="stop-color:#ffffff;" offset="0.25794"/><stop style="stop-color:#ffffff;stop-opacity:0;" offset="1"/></linearGradient><mask id="mask3838"><path style="fill:url(#linearGradient3830);" d="m-32768,32767,65535,0,0-65535-65535,0,0,65535z"/></mask><clipPath id="clipPath3858"><path d="m499.37,590.96,387.45-398.31-19.803-17.039-387.45,398.31,19.804,17.039z"/></clipPath><linearGradient id="linearGradient3866" gradientUnits="userSpaceOnUse" gradientTransform="matrix(69.678436,-359.23889,-370.02667,69.678436,648.35645,562.9043)"><stop style="stop-color:#ffffff;stop-opacity:0;" offset="0"/><stop style="stop-color:#ffffff;" offset="0.25794"/><stop style="stop-color:#ffffff;stop-opacity:0;" offset="1"/></linearGradient><mask id="mask3874"><path style="fill:url(#linearGradient3866);" d="m-32768,32767,65535,0,0-65535-65535,0,0,65535z"/></mask><clipPath id="clipPath3894"><path d="m539.43,629.58,387.45-398.31-19.803-17.039-387.45,398.31,19.805,17.039z"/></clipPath><linearGradient id="linearGradient3902" gradientUnits="userSpaceOnUse" gradientTransform="matrix(69.678436,-359.23889,-370.02667,69.678436,688.41309,601.52246)"><stop style="stop-color:#ffffff;stop-opacity:0;" offset="0"/><stop style="stop-color:#ffffff;" offset="0.25794"/><stop style="stop-color:#ffffff;stop-opacity:0;" offset="1"/></linearGradient><mask id="mask3910"><path style="fill:url(#linearGradient3902);" d="m-32768,32767,65535,0,0-65535-65535,0,0,65535z"/></mask><clipPath id="clipPath3930"><path d="m559.82,649.24,387.45-398.31-19.804-17.039-387.45,398.31,19.803,17.039z"/></clipPath><linearGradient id="linearGradient3938" gradientUnits="userSpaceOnUse" gradientTransform="matrix(69.678436,-359.23889,-370.02667,69.678436,708.80859,621.18359)"><stop style="stop-color:#ffffff;stop-opacity:0;" offset="0"/><stop style="stop-color:#ffffff;" offset="0.25794"/><stop style="stop-color:#ffffff;stop-opacity:0;" offset="1"/></linearGradient><mask id="mask3946"><path style="fill:url(#linearGradient3938);" d="m-32768,32767,65535,0,0-65535-65535,0,0,65535z"/></mask><clipPath id="clipPath4030"><path d="m530.4,383.57,467.71,0,0-473.63-467.71,0,0,473.63z"/></clipPath><clipPath id="clipPath4034"><path d="M569.87,344.24,957.32-54.068,937.52-71.105,550.07,327.2,569.87,344.24z"/></clipPath><linearGradient id="linearGradient4042" gradientUnits="userSpaceOnUse" gradientTransform="matrix(69.678436,-359.23889,-370.02667,69.678436,718.85449,316.18848)"><stop style="stop-color:#ffffff;stop-opacity:0;" offset="0"/><stop style="stop-color:#ffffff;" offset="0.67857"/><stop style="stop-color:#ffffff;stop-opacity:0;" offset="1"/></linearGradient><mask id="mask4050"><path style="fill:url(#linearGradient4042);" d="m-32768,32767,65535,0,0-65535-65535,0,0,65535z"/></mask><clipPath id="clipPath4070"><path d="m550.2,325.28,387.45-398.31-19.802-17.039-387.45,398.31,19.803,17.039z"/></clipPath><linearGradient id="linearGradient4078" gradientUnits="userSpaceOnUse" gradientTransform="matrix(69.678436,-359.23889,-370.02667,69.678436,699.18945,297.23047)"><stop style="stop-color:#ffffff;stop-opacity:0;" offset="0"/><stop style="stop-color:#ffffff;" offset="0.67857"/><stop style="stop-color:#ffffff;stop-opacity:0;" offset="1"/></linearGradient><mask id="mask4086"><path style="fill:url(#linearGradient4078);" d="m-32768,32767,65535,0,0-65535-65535,0,0,65535z"/></mask><clipPath id="clipPath4106"><path d="M590.26,363.9,977.72-34.405,957.91-51.443,570.46,346.87,590.26,363.9z"/></clipPath><linearGradient id="linearGradient4114" gradientUnits="userSpaceOnUse" gradientTransform="matrix(69.678207,-359.2377,-370.02545,69.678207,739.24805,335.84961)"><stop style="stop-color:#ffffff;stop-opacity:0;" offset="0"/><stop style="stop-color:#ffffff;" offset="0.67857"/><stop style="stop-color:#ffffff;stop-opacity:0;" offset="1"/></linearGradient><mask id="mask4122"><path style="fill:url(#linearGradient4114);" d="m-32768,32767,65535,0,0-65535-65535,0,0,65535z"/></mask><clipPath id="clipPath4142"><path d="m610.66,383.57,387.45-398.31-19.803-17.038-387.45,398.31,19.803,17.038z"/></clipPath><linearGradient id="linearGradient4150" gradientUnits="userSpaceOnUse" gradientTransform="matrix(69.678665,-359.24008,-370.02789,69.678665,759.6416,355.5127)"><stop style="stop-color:#ffffff;stop-opacity:0;" offset="0"/><stop style="stop-color:#ffffff;" offset="0.67857"/><stop style="stop-color:#ffffff;stop-opacity:0;" offset="1"/></linearGradient><mask id="mask4158"><path style="fill:url(#linearGradient4150);" d="m-32768,32767,65535,0,0-65535-65535,0,0,65535z"/></mask><clipPath id="clipPath4242"><path d="m422.41,921.56,467.71,0,0-473.63-467.71,0,0,473.63z"/></clipPath><clipPath id="clipPath4246"><path d="m850.65,487.25-387.45,398.31,19.804,17.039,387.45-398.31-19.803-17.04z"/></clipPath><linearGradient id="linearGradient4254" gradientUnits="userSpaceOnUse" gradientTransform="matrix(-69.678665,359.24008,370.02789,-69.678665,701.66113,515.30615)"><stop style="stop-color:#ffffff;stop-opacity:0;" offset="0"/><stop style="stop-color:#ffffff;" offset="0.67857"/><stop style="stop-color:#ffffff;stop-opacity:0;" offset="1"/></linearGradient><mask id="mask4262"><path style="fill:url(#linearGradient4254);" d="m-32768,32767,65535,0,0-65535-65535,0,0,65535z"/></mask><clipPath id="clipPath4282"><path d="M870.31,506.21,482.86,904.52,502.66,921.56,890.11,523.25,870.31,506.21z"/></clipPath><linearGradient id="linearGradient4290" gradientUnits="userSpaceOnUse" gradientTransform="matrix(-69.678322,359.23831,370.02606,-69.678322,721.3252,534.26562)"><stop style="stop-color:#ffffff;stop-opacity:0;" offset="0"/><stop style="stop-color:#ffffff;" offset="0.67857"/><stop style="stop-color:#ffffff;stop-opacity:0;" offset="1"/></linearGradient><mask id="mask4298"><path style="fill:url(#linearGradient4290);" d="m-32768,32767,65535,0,0-65535-65535,0,0,65535z"/></mask><clipPath id="clipPath4318"><path d="M830.25,467.59,442.8,865.9,462.6,882.94,850.06,484.63,830.25,467.59z"/></clipPath><linearGradient id="linearGradient4326" gradientUnits="userSpaceOnUse" gradientTransform="matrix(-69.678207,359.2377,370.02545,-69.678207,681.26758,495.64453)"><stop style="stop-color:#ffffff;stop-opacity:0;" offset="0"/><stop style="stop-color:#ffffff;" offset="0.67857"/><stop style="stop-color:#ffffff;stop-opacity:0;" offset="1"/></linearGradient><mask id="mask4334"><path style="fill:url(#linearGradient4326);" d="m-32768,32767,65535,0,0-65535-65535,0,0,65535z"/></mask><clipPath id="clipPath4354"><path d="M809.86,447.93,422.41,846.24,442.21,863.28,829.66,464.97,809.86,447.93z"/></clipPath><linearGradient id="linearGradient4362" gradientUnits="userSpaceOnUse" gradientTransform="matrix(-69.678665,359.24008,370.02789,-69.678665,660.87305,475.98242)"><stop style="stop-color:#ffffff;stop-opacity:0;" offset="0"/><stop style="stop-color:#ffffff;" offset="0.67857"/><stop style="stop-color:#ffffff;stop-opacity:0;" offset="1"/></linearGradient><mask id="mask4370"><path style="fill:url(#linearGradient4362);" d="m-32768,32767,65535,0,0-65535-65535,0,0,65535z"/></mask><clipPath id="clipPath4454"><path d="m-132.6,661.17,455.84,0,0-487-455.84,0,0,487z"/></clipPath><clipPath id="clipPath4458"><path d="M285.18,620.38-93.279,211.53-74.175,193.84,304.28,602.7,285.18,620.38z"/></clipPath><linearGradient id="linearGradient4466" gradientUnits="userSpaceOnUse" gradientTransform="matrix(69.910759,370.24408,359.42737,69.910759,70.544922,221.98828)"><stop style="stop-color:#ffffff;stop-opacity:0;" offset="0"/><stop style="stop-color:#ffffff;" offset="0.72222"/><stop style="stop-color:#ffffff;stop-opacity:0;" offset="1"/></linearGradient><mask id="mask4474"><path style="fill:url(#linearGradient4466);" d="m-32768,32767,65535,0,0-65535-65535,0,0,65535z"/></mask><clipPath id="clipPath4494"><path d="M304.13,600.72-74.323,191.86l19.105-17.685,378.46,408.86-19.105,17.684z"/></clipPath><linearGradient id="linearGradient4502" gradientUnits="userSpaceOnUse" gradientTransform="matrix(69.910759,370.24408,359.42737,69.910759,89.500977,202.32227)"><stop style="stop-color:#ffffff;stop-opacity:0;" offset="0"/><stop style="stop-color:#ffffff;" offset="0.72222"/><stop style="stop-color:#ffffff;stop-opacity:0;" offset="1"/></linearGradient><mask id="mask4510"><path style="fill:url(#linearGradient4502);" d="m-32768,32767,65535,0,0-65535-65535,0,0,65535z"/></mask><clipPath id="clipPath4530"><path d="M265.52,640.78-112.94,231.92-93.836,214.24,284.62,623.09,265.52,640.78z"/></clipPath><linearGradient id="linearGradient4538" gradientUnits="userSpaceOnUse" gradientTransform="matrix(69.91053,370.24286,359.42618,69.91053,50.883789,242.38281)"><stop style="stop-color:#ffffff;stop-opacity:0;" offset="0"/><stop style="stop-color:#ffffff;" offset="0.72222"/><stop style="stop-color:#ffffff;stop-opacity:0;" offset="1"/></linearGradient><mask id="mask4546"><path style="fill:url(#linearGradient4538);" d="m-32768,32767,65535,0,0-65535-65535,0,0,65535z"/></mask><clipPath id="clipPath4566"><path d="M245.86,661.17-132.6,252.32-113.5,234.63,264.96,643.49,245.86,661.17z"/></clipPath><linearGradient id="linearGradient4574" gradientUnits="userSpaceOnUse" gradientTransform="matrix(69.910759,370.24408,359.42737,69.910759,31.222656,262.77734)"><stop style="stop-color:#ffffff;stop-opacity:0;" offset="0"/><stop style="stop-color:#ffffff;" offset="0.72222"/><stop style="stop-color:#ffffff;stop-opacity:0;" offset="1"/></linearGradient><mask id="mask4582"><path style="fill:url(#linearGradient4574);" d="m-32768,32767,65535,0,0-65535-65535,0,0,65535z"/></mask><clipPath id="clipPath4666"><path d="m-142.38,665.14,467.71,0,0-473.63-467.71,0,0,473.63z"/></clipPath><clipPath id="clipPath4670"><path d="m285.86,230.83-387.45,398.31,19.803,17.039,387.45-398.31-19.804-17.037z"/></clipPath><linearGradient id="linearGradient4678" gradientUnits="userSpaceOnUse" gradientTransform="matrix(-69.678436,359.23889,370.02667,-69.678436,136.87402,258.88281)"><stop style="stop-color:#ffffff;stop-opacity:0;" offset="0"/><stop style="stop-color:#ffffff;" offset="0.25794"/><stop style="stop-color:#ffffff;stop-opacity:0;" offset="1"/></linearGradient><mask id="mask4686"><path style="fill:url(#linearGradient4678);" d="m-32768,32767,65535,0,0-65535-65535,0,0,65535z"/></mask><clipPath id="clipPath4706"><path d="m305.52,249.79-387.45,398.31,19.803,17.039,387.45-398.31-19.803-17.039z"/></clipPath><linearGradient id="linearGradient4714" gradientUnits="userSpaceOnUse" gradientTransform="matrix(-69.678436,359.23889,370.02667,-69.678436,156.53809,277.8418)"><stop style="stop-color:#ffffff;stop-opacity:0;" offset="0"/><stop style="stop-color:#ffffff;" offset="0.25794"/><stop style="stop-color:#ffffff;stop-opacity:0;" offset="1"/></linearGradient><mask id="mask4722"><path style="fill:url(#linearGradient4714);" d="m-32768,32767,65535,0,0-65535-65535,0,0,65535z"/></mask><clipPath id="clipPath4742"><path d="m265.46,211.17-387.45,398.31,19.802,17.039,387.45-398.31-19.805-17.039z"/></clipPath><linearGradient id="linearGradient4750" gradientUnits="userSpaceOnUse" gradientTransform="matrix(-69.678207,359.2377,370.02545,-69.678207,116.48047,239.22168)"><stop style="stop-color:#ffffff;stop-opacity:0;" offset="0"/><stop style="stop-color:#ffffff;" offset="0.25794"/><stop style="stop-color:#ffffff;stop-opacity:0;" offset="1"/></linearGradient><mask id="mask4758"><path style="fill:url(#linearGradient4750);" d="m-32768,32767,65535,0,0-65535-65535,0,0,65535z"/></mask><clipPath id="clipPath4778"><path d="m245.07,191.5-387.45,398.31,19.804,17.039,387.45-398.31-19.804-17.039z"/></clipPath><linearGradient id="linearGradient4786" gradientUnits="userSpaceOnUse" gradientTransform="matrix(-69.678436,359.23889,370.02667,-69.678436,96.085937,219.55859)"><stop style="stop-color:#ffffff;stop-opacity:0;" offset="0"/><stop style="stop-color:#ffffff;" offset="0.25794"/><stop style="stop-color:#ffffff;stop-opacity:0;" offset="1"/></linearGradient><mask id="mask4794"><path style="fill:url(#linearGradient4786);" d="m-32768,32767,65535,0,0-65535-65535,0,0,65535z"/></mask><clipPath id="clipPath4878"><path d="m-193.21,930.81,467.7,0,0-473.63-467.7,0,0,473.63z"/></clipPath><clipPath id="clipPath4882"><path d="m235.02,496.5-387.45,398.31,19.803,17.038,387.45-398.31-19.804-17.04z"/></clipPath><linearGradient id="linearGradient4890" gradientUnits="userSpaceOnUse" gradientTransform="matrix(-69.678436,359.23889,370.02667,-69.678436,86.041016,524.55469)"><stop style="stop-color:#ffffff;stop-opacity:0;" offset="0"/><stop style="stop-color:#ffffff;" offset="0.67857"/><stop style="stop-color:#ffffff;stop-opacity:0;" offset="1"/></linearGradient><mask id="mask4898"><path style="fill:url(#linearGradient4890);" d="m-32768,32767,65535,0,0-65535-65535,0,0,65535z"/></mask><clipPath id="clipPath4918"><path d="m254.69,515.46-387.45,398.31,19.803,17.039,387.45-398.31-19.803-17.04z"/></clipPath><linearGradient id="linearGradient4926" gradientUnits="userSpaceOnUse" gradientTransform="matrix(-69.678436,359.23889,370.02667,-69.678436,105.70313,543.5127)"><stop style="stop-color:#ffffff;stop-opacity:0;" offset="0"/><stop style="stop-color:#ffffff;" offset="0.67857"/><stop style="stop-color:#ffffff;stop-opacity:0;" offset="1"/></linearGradient><mask id="mask4934"><path style="fill:url(#linearGradient4926);" d="m-32768,32767,65535,0,0-65535-65535,0,0,65535z"/></mask><clipPath id="clipPath4954"><path d="M214.63,476.84-172.82,875.15-153.02,892.19,234.44,493.88,214.63,476.84z"/></clipPath><linearGradient id="linearGradient4962" gradientUnits="userSpaceOnUse" gradientTransform="matrix(-69.678207,359.2377,370.02545,-69.678207,65.647461,504.89258)"><stop style="stop-color:#ffffff;stop-opacity:0;" offset="0"/><stop style="stop-color:#ffffff;" offset="0.67857"/><stop style="stop-color:#ffffff;stop-opacity:0;" offset="1"/></linearGradient><mask id="mask4970"><path style="fill:url(#linearGradient4962);" d="m-32768,32767,65535,0,0-65535-65535,0,0,65535z"/></mask><clipPath id="clipPath4990"><path d="m194.24,457.18-387.45,398.31,19.803,17.039,387.45-398.31-19.803-17.039z"/></clipPath><linearGradient id="linearGradient4998" gradientUnits="userSpaceOnUse" gradientTransform="matrix(-69.678665,359.24008,370.02789,-69.678665,45.251953,485.23242)"><stop style="stop-color:#ffffff;stop-opacity:0;" offset="0"/><stop style="stop-color:#ffffff;" offset="0.67857"/><stop style="stop-color:#ffffff;stop-opacity:0;" offset="1"/></linearGradient><mask id="mask5006"><path style="fill:url(#linearGradient4998);" d="m-32768,32767,65535,0,0-65535-65535,0,0,65535z"/></mask><clipPath id="clipPath5090"><path d="m-85.219,392.82,467.71,0,0-473.63-467.71,0,0,473.63z"/></clipPath><clipPath id="clipPath5094"><path d="M-45.751,353.49,341.7-44.817,321.9-61.856-65.556,336.45-45.751,353.49z"/></clipPath><linearGradient id="linearGradient5102" gradientUnits="userSpaceOnUse" gradientTransform="matrix(69.678665,-359.24008,-370.02789,69.678665,103.2334,325.43848)"><stop style="stop-color:#ffffff;stop-opacity:0;" offset="0"/><stop style="stop-color:#ffffff;" offset="0.67857"/><stop style="stop-color:#ffffff;stop-opacity:0;" offset="1"/></linearGradient><mask id="mask5110"><path style="fill:url(#linearGradient5102);" d="m-32768,32767,65535,0,0-65535-65535,0,0,65535z"/></mask><clipPath id="clipPath5130"><path d="m-65.415,334.53,387.45-398.31-19.805-17.039-387.45,398.31,19.804,17.037z"/></clipPath><linearGradient id="linearGradient5138" gradientUnits="userSpaceOnUse" gradientTransform="matrix(69.678436,-359.23889,-370.02667,69.678436,83.569336,306.47949)"><stop style="stop-color:#ffffff;stop-opacity:0;" offset="0"/><stop style="stop-color:#ffffff;" offset="0.67857"/><stop style="stop-color:#ffffff;stop-opacity:0;" offset="1"/></linearGradient><mask id="mask5146"><path style="fill:url(#linearGradient5138);" d="m-32768,32767,65535,0,0-65535-65535,0,0,65535z"/></mask><clipPath id="clipPath5166"><path d="m-25.357,373.16,387.45-398.31-19.803-17.037-387.45,398.31,19.804,17.039z"/></clipPath><linearGradient id="linearGradient5174" gradientUnits="userSpaceOnUse" gradientTransform="matrix(69.678436,-359.23889,-370.02667,69.678436,123.62695,345.10156)"><stop style="stop-color:#ffffff;stop-opacity:0;" offset="0"/><stop style="stop-color:#ffffff;" offset="0.67857"/><stop style="stop-color:#ffffff;stop-opacity:0;" offset="1"/></linearGradient><mask id="mask5182"><path style="fill:url(#linearGradient5174);" d="m-32768,32767,65535,0,0-65535-65535,0,0,65535z"/></mask><clipPath id="clipPath5202"><path d="M-4.964,392.82,382.49-5.493,362.68-22.532-24.767,375.78-4.964,392.82z"/></clipPath><linearGradient id="linearGradient5210" gradientUnits="userSpaceOnUse" gradientTransform="matrix(69.678436,-359.23889,-370.02667,69.678436,144.02148,364.7627)"><stop style="stop-color:#ffffff;stop-opacity:0;" offset="0"/><stop style="stop-color:#ffffff;" offset="0.67857"/><stop style="stop-color:#ffffff;stop-opacity:0;" offset="1"/></linearGradient><mask id="mask5218"><path style="fill:url(#linearGradient5210);" d="m-32768,32767,65535,0,0-65535-65535,0,0,65535z"/></mask></defs><g transform="matrix(1.25,0,0,-1.25,0,1000)"><path style="fill:url(#radialGradient3026);" d="M0,0,800,0,800,800,0,800,0,0z"/><g clip-path="url(#clipPath3040)"><g style="opacity:0.30000299;" clip-path="url(#clipPath3048)"><g clip-path="url(#clipPath3052)"><g mask="url(#mask3068)"><path style="fill:url(#radialGradient3080);" d="m-124.38,10.08,90.901,27.617,12.658,279.61,80.544,0,29.917-17.262-8.055-289.96,8.055,0,0,112.76,10.355,2.303,8.054,104.71,6.903,4.601,0,180.65,69.038,17.261-6.902-186.4,70.189,6.904,0-103.56,40.272,1.15,16.11,225.53,115.06-3.452,4.601-19.561,46.027-5.752,13.806,40.271,60.985-1.15,0,133.48,87.45,36.82,42.572-41.423,0-318.73,11.505,6.906,0,110.46,82.849,14.96,0-128.88,20.71,1.153-10.354,210.57,35.67,2.301,0,60.983,23.013,17.261,81.696-2.301,0-743.31-1043.6,0,0,263.49z"/></g></g></g><g style="opacity:0.30000299;" clip-path="url(#clipPath3110)"><g clip-path="url(#clipPath3114)"><g mask="url(#mask3130)"><path style="fill:url(#radialGradient3142);" d="m-144.97-25.937,93.163,27.618,12.973,279.6,82.552,0,30.66-17.261-8.255-289.96,8.255,0,0,112.76,10.613,2.304,8.256,104.71,7.075,4.601,0,180.65,70.758,17.261-7.075-186.41,71.937,6.906,0-103.56,41.274,1.15,16.511,225.53,117.93-3.451,4.719-19.563,47.171-5.752,14.149,40.273,62.505-1.151,0,133.48,89.627,36.819,43.634-41.422,0-318.73,11.791,6.905,0,110.46,84.911,14.961,0-128.88,21.227,1.153-10.612,210.57,36.557,2.3,0,60.984,23.586,17.262,83.73-2.301,0-743.31-1069.6,0,0,263.5z"/></g></g></g><g style="opacity:0.30000299;" clip-path="url(#clipPath3172)"><g clip-path="url(#clipPath3176)"><g mask="url(#mask3192)"><path style="fill:url(#radialGradient3204);" d="m-111.64-41.505,92.545,27.617,12.888,279.61,82.003,0,30.457-17.261-8.199-289.96,8.199,0,0,112.76,10.544,2.304,8.2,104.71,7.028,4.602,0,180.65,70.288,17.26-7.028-186.4,71.46,6.905,0-103.56,41.001,1.15,16.402,225.53,117.15-3.451,4.685-19.562,46.86-5.752,14.056,40.272,62.088-1.15,0,133.47,89.035,36.819,43.342-41.421,0-318.73,11.715,6.906,0,110.46,84.347,14.961,0-128.88,21.085,1.153-10.541,210.57,36.315,2.301,0,60.984,23.429,17.261,83.176-2.301,0-743.31-1062.5,0,0,263.5z"/></g></g></g></g><g clip-path="url(#clipPath3598)"><g style="opacity:0.39999402;" clip-path="url(#clipPath3606)"><g clip-path="url(#clipPath3610)"><g mask="url(#mask3626)"><path style="fill:url(#linearGradient3638);" d="M519.72,220.36,898.17,629.22,879.07,646.9,500.61,238.05,519.72,220.36z"/></g></g><g clip-path="url(#clipPath3646)"><g mask="url(#mask3662)"><path style="fill:url(#linearGradient3674);" d="M500.76,240.03,879.22,648.88,860.11,666.57,481.66,257.71,500.76,240.03z"/></g></g><g clip-path="url(#clipPath3682)"><g mask="url(#mask3698)"><path style="fill:url(#linearGradient3710);" d="M539.38,199.97,917.84,608.82,898.73,626.51,520.27,217.65,539.38,199.97z"/></g></g><g clip-path="url(#clipPath3718)"><g mask="url(#mask3734)"><path style="fill:url(#linearGradient3746);" d="M559.04,179.57,937.5,588.43,918.39,606.12,539.93,197.26,559.04,179.57z"/></g></g></g><g style="opacity:0.39999402;" clip-path="url(#clipPath3818)"><g clip-path="url(#clipPath3822)"><g mask="url(#mask3838)"><path style="fill:url(#linearGradient3850);" d="m519.04,609.92,387.45-398.31-19.803-17.039-387.45,398.31,19.805,17.038z"/></g></g><g clip-path="url(#clipPath3858)"><g mask="url(#mask3874)"><path style="fill:url(#linearGradient3886);" d="m499.37,590.96,387.45-398.31-19.803-17.039-387.45,398.31,19.804,17.039z"/></g></g><g clip-path="url(#clipPath3894)"><g mask="url(#mask3910)"><path style="fill:url(#linearGradient3922);" d="m539.43,629.58,387.45-398.31-19.803-17.039-387.45,398.31,19.805,17.039z"/></g></g><g clip-path="url(#clipPath3930)"><g mask="url(#mask3946)"><path style="fill:url(#linearGradient3958);" d="m559.82,649.24,387.45-398.31-19.804-17.039-387.45,398.31,19.803,17.039z"/></g></g></g><g style="opacity:0.39999402;" clip-path="url(#clipPath4030)"><g clip-path="url(#clipPath4034)"><g mask="url(#mask4050)"><path style="fill:url(#linearGradient4062);" d="M569.87,344.24,957.32-54.068,937.52-71.105,550.07,327.2,569.87,344.24z"/></g></g><g clip-path="url(#clipPath4070)"><g mask="url(#mask4086)"><path style="fill:url(#linearGradient4098);" d="m550.2,325.28,387.45-398.31-19.802-17.039-387.45,398.31,19.803,17.039z"/></g></g><g clip-path="url(#clipPath4106)"><g mask="url(#mask4122)"><path style="fill:url(#linearGradient4134);" d="M590.26,363.9,977.72-34.405,957.91-51.443,570.46,346.87,590.26,363.9z"/></g></g><g clip-path="url(#clipPath4142)"><g mask="url(#mask4158)"><path style="fill:url(#linearGradient4170);" d="m610.66,383.57,387.45-398.31-19.803-17.038-387.45,398.31,19.803,17.038z"/></g></g></g><g style="opacity:0.39999402;" clip-path="url(#clipPath4242)"><g clip-path="url(#clipPath4246)"><g mask="url(#mask4262)"><path style="fill:url(#linearGradient4274);" d="m850.65,487.25-387.45,398.31,19.804,17.039,387.45-398.31-19.803-17.04z"/></g></g><g clip-path="url(#clipPath4282)"><g mask="url(#mask4298)"><path style="fill:url(#linearGradient4310);" d="M870.31,506.21,482.86,904.52,502.66,921.56,890.11,523.25,870.31,506.21z"/></g></g><g clip-path="url(#clipPath4318)"><g mask="url(#mask4334)"><path style="fill:url(#linearGradient4346);" d="M830.25,467.59,442.8,865.9,462.6,882.94,850.06,484.63,830.25,467.59z"/></g></g><g clip-path="url(#clipPath4354)"><g mask="url(#mask4370)"><path style="fill:url(#linearGradient4382);" d="M809.86,447.93,422.41,846.24,442.21,863.28,829.66,464.97,809.86,447.93z"/></g></g></g><g style="opacity:0.39999402;" clip-path="url(#clipPath4454)"><g clip-path="url(#clipPath4458)"><g mask="url(#mask4474)"><path style="fill:url(#linearGradient4486);" d="M285.18,620.38-93.279,211.53-74.175,193.84,304.28,602.7,285.18,620.38z"/></g></g><g clip-path="url(#clipPath4494)"><g mask="url(#mask4510)"><path style="fill:url(#linearGradient4522);" d="M304.13,600.72-74.323,191.86l19.105-17.685,378.46,408.86-19.105,17.684z"/></g></g><g clip-path="url(#clipPath4530)"><g mask="url(#mask4546)"><path style="fill:url(#linearGradient4558);" d="M265.52,640.78-112.94,231.92-93.836,214.24,284.62,623.09,265.52,640.78z"/></g></g><g clip-path="url(#clipPath4566)"><g mask="url(#mask4582)"><path style="fill:url(#linearGradient4594);" d="M245.86,661.17-132.6,252.32-113.5,234.63,264.96,643.49,245.86,661.17z"/></g></g></g><g style="opacity:0.39999402;" clip-path="url(#clipPath4666)"><g clip-path="url(#clipPath4670)"><g mask="url(#mask4686)"><path style="fill:url(#linearGradient4698);" d="m285.86,230.83-387.45,398.31,19.803,17.039,387.45-398.31-19.804-17.037z"/></g></g><g clip-path="url(#clipPath4706)"><g mask="url(#mask4722)"><path style="fill:url(#linearGradient4734);" d="m305.52,249.79-387.45,398.31,19.803,17.039,387.45-398.31-19.803-17.039z"/></g></g><g clip-path="url(#clipPath4742)"><g mask="url(#mask4758)"><path style="fill:url(#linearGradient4770);" d="m265.46,211.17-387.45,398.31,19.802,17.039,387.45-398.31-19.805-17.039z"/></g></g><g clip-path="url(#clipPath4778)"><g mask="url(#mask4794)"><path style="fill:url(#linearGradient4806);" d="m245.07,191.5-387.45,398.31,19.804,17.039,387.45-398.31-19.804-17.039z"/></g></g></g><g style="opacity:0.39999402;" clip-path="url(#clipPath4878)"><g clip-path="url(#clipPath4882)"><g mask="url(#mask4898)"><path style="fill:url(#linearGradient4910);" d="m235.02,496.5-387.45,398.31,19.803,17.038,387.45-398.31-19.804-17.04z"/></g></g><g clip-path="url(#clipPath4918)"><g mask="url(#mask4934)"><path style="fill:url(#linearGradient4946);" d="m254.69,515.46-387.45,398.31,19.803,17.039,387.45-398.31-19.803-17.04z"/></g></g><g clip-path="url(#clipPath4954)"><g mask="url(#mask4970)"><path style="fill:url(#linearGradient4982);" d="M214.63,476.84-172.82,875.15-153.02,892.19,234.44,493.88,214.63,476.84z"/></g></g><g clip-path="url(#clipPath4990)"><g mask="url(#mask5006)"><path style="fill:url(#linearGradient5018);" d="m194.24,457.18-387.45,398.31,19.803,17.039,387.45-398.31-19.803-17.039z"/></g></g></g><g style="opacity:0.39999402;" clip-path="url(#clipPath5090)"><g clip-path="url(#clipPath5094)"><g mask="url(#mask5110)"><path style="fill:url(#linearGradient5122);" d="M-45.751,353.49,341.7-44.817,321.9-61.856-65.556,336.45-45.751,353.49z"/></g></g><g clip-path="url(#clipPath5130)"><g mask="url(#mask5146)"><path style="fill:url(#linearGradient5158);" d="m-65.415,334.53,387.45-398.31-19.805-17.039-387.45,398.31,19.804,17.037z"/></g></g><g clip-path="url(#clipPath5166)"><g mask="url(#mask5182)"><path style="fill:url(#linearGradient5194);" d="m-25.357,373.16,387.45-398.31-19.803-17.037-387.45,398.31,19.804,17.039z"/></g></g><g clip-path="url(#clipPath5202)"><g mask="url(#mask5218)"><path style="fill:url(#linearGradient5230);" d="M-4.964,392.82,382.49-5.493,362.68-22.532-24.767,375.78-4.964,392.82z"/></g></g></g></g></g></svg>
