<svg xmlns="http://www.w3.org/2000/svg" height="250" width="400"><path d="M84.465 47.97v187.087c0 8.483 6.877 15.36 15.36 15.36h137.052V188.57c0-10.067 8.16-18.228 18.228-18.228h61.844V47.97c0-8.484-6.88-15.36-15.36-15.36h-33.35c-4.66 6.976-12.6 11.582-21.59 11.582-4.32 0-8.38-1.06-11.97-2.93l-25 16.605c-1.74 1.155-3.81-.913-2.65-2.65l15.02-22.607H99.82c-8.483 0-15.36 6.87-15.36 15.36zm170.64 132.922c-4.24 0-7.68 3.44-7.68 7.68v61.847l69.53-69.53h-61.85zM235.38 32.61c2.075 1.632 4.51 2.822 7.172 3.433 1.32.303 2.69.47 4.102.47 4.257 0 8.17-1.462 11.274-3.904 4.25-3.35 6.982-8.53 6.982-14.36C264.91 8.17 256.736 0 246.652 0c-10.08 0-18.255 8.174-18.255 18.256 0 1.412.165 2.784.468 4.103.948 4.12 3.293 7.71 6.514 10.25z"/></svg>